<svg width="16" height="16" viewBox="0 0 16 16" fill="none" xmlns="http://www.w3.org/2000/svg">
<path d="M4.00033 2H11.3337V10.6667L6.66699 15.3333L5.83366 14.5C5.75588 14.4222 5.69199 14.3167 5.64199 14.1833C5.59199 14.05 5.56699 13.9222 5.56699 13.8V13.5667L6.30033 10.6667H2.00033C1.64477 10.6667 1.33366 10.5333 1.06699 10.2667C0.800326 10 0.666992 9.68889 0.666992 9.33333V8C0.666992 7.92222 0.678103 7.83889 0.700326 7.75C0.722548 7.66111 0.74477 7.57778 0.766992 7.5L2.76699 2.8C2.86699 2.57778 3.03366 2.38889 3.26699 2.23333C3.50033 2.07778 3.74477 2 4.00033 2ZM10.0003 3.33333H4.00033L2.00033 8V9.33333H8.00033L7.10033 13L10.0003 10.1V3.33333ZM11.3337 10.6667V9.33333H13.3337V3.33333H11.3337V2H14.667V10.6667H11.3337Z" fill="#FC0909"/>
</svg>
